<svg width="233" height="269" viewBox="0 0 233 269" fill="none" xmlns="http://www.w3.org/2000/svg">
<g clip-path="url(#clip0)">
<path d="M6.59064 203.468C8.44727 199.41 11.3252 193.661 14.724 191.277C23.4728 185.155 44.2913 174.56 80.7036 191.912C121.516 211.358 122.669 175.68 162.73 173.218C191.591 171.449 222.9 179.044 229.69 193.586C236.075 207.235 230.671 240.496 205.52 238.149C160.197 233.918 163.17 243.759 119.659 260.756C75.1337 278.142 65.6104 233.117 23.8177 246.472C-3.80173 255.291 -1.86394 222.055 6.59064 203.468Z" fill="black"/>
<path d="M193.684 30.1152L149.73 144.391H152.5L193.684 30.1152Z" fill="#8D8D8D"/>
<path d="M194.069 10.7103C194.069 10.7103 191.638 25.9522 193.684 30.1152C193.684 30.1152 198.868 21.4138 194.069 10.7103Z" fill="#8D8D8D"/>
<path d="M182.987 14.8598C182.987 14.8598 187.211 27.7277 190.833 30.2201C190.833 30.2201 191.885 21.4408 182.987 14.8598Z" fill="#8D8D8D"/>
<path d="M205.821 7.03421C205.821 7.03421 193.393 23.3279 194.36 29.4659C194.36 29.4659 207.573 22.5332 205.821 7.03421Z" fill="#8D8D8D"/>
<path d="M177.39 20.3857C177.39 20.3857 181.503 36.8519 182.93 41.485C183.268 42.5739 183.606 43.071 183.944 43.159C184.959 43.4194 185.909 39.9665 186.129 37.5722C186.43 34.3831 184.84 24.4879 177.39 20.3857Z" fill="#8D8D8D"/>
<path d="M184.174 42.8952C184.174 42.8952 184.137 42.8106 184.144 42.9459C184.211 44.4103 184.641 53.3011 184.296 54.806C183.917 56.453 185.273 52.7025 185.273 52.7025L184.174 42.8952Z" fill="#8D8D8D"/>
<path d="M190.836 30.0645C190.836 30.0645 190.688 29.9833 190.701 30.0341C191.077 31.4612 190.566 37.3152 190.221 38.8268C189.842 40.4704 190.897 37.5282 190.897 37.5282L190.836 30.0645Z" fill="#8D8D8D"/>
<path d="M173.653 26.8213C173.653 26.8213 174.556 48.2723 177.011 53.1997C180.14 59.4763 181.912 48.0931 181.59 45.9659C181.269 43.8387 180.529 31.6066 173.653 26.8213Z" fill="#8D8D8D"/>
<path d="M190.836 30.0645C190.836 30.0645 190.688 29.9833 190.701 30.0341C191.077 31.4612 190.566 37.3152 190.221 38.8268C189.842 40.4704 190.897 37.5282 190.897 37.5282L190.836 30.0645Z" fill="#8D8D8D"/>
<path d="M179.064 54.3224C179.064 54.3224 179.024 54.2243 179.03 54.3765C179.095 56.01 179.507 65.9187 179.156 67.5961C178.773 69.4325 180.143 65.2525 180.143 65.2525L179.064 54.3224Z" fill="#8D8D8D"/>
<path d="M161.218 35.0392C161.218 35.0392 167.306 59.6184 170.944 64.9008C175.554 71.6239 175.956 57.7989 175.121 55.3944C174.286 52.99 169.162 39.4254 161.218 35.0392Z" fill="#8D8D8D"/>
<path d="M173.467 66.4767C173.467 66.4767 173.356 66.0608 173.362 66.2299C173.433 68.0527 174.735 77.9716 174.34 79.8451C173.91 81.8911 175.439 77.5894 175.439 77.5894L173.467 66.4767Z" fill="#8D8D8D"/>
<path d="M154.066 46.3176C154.066 46.3176 162.182 71.8606 165.807 77.488C170.407 84.6473 170.143 69.145 168.871 64.8737C167.566 60.501 162.006 50.9913 154.066 46.3176Z" fill="#8D8D8D"/>
<path d="M168.327 79.1518C168.327 79.1518 168.215 78.7088 168.222 78.8881C168.293 80.8326 169.575 91.4008 169.186 93.3928C168.753 95.574 170.285 90.9883 170.285 90.9883L168.327 79.1518Z" fill="#8D8D8D"/>
<path d="M149.162 58.7425C149.162 58.7425 157.278 84.2855 160.9 89.9128C165.503 97.0756 165.236 81.5698 163.964 77.302C162.662 72.9259 157.103 63.4195 149.162 58.7425Z" fill="#8D8D8D"/>
<path d="M163.423 91.5936C163.423 91.5936 163.308 91.1506 163.315 91.3298C163.386 93.271 164.668 104.181 164.275 106.183C163.843 108.364 165.581 103.352 165.581 103.352L163.423 91.5936Z" fill="#8D8D8D"/>
<path d="M140.816 69.5677C140.816 69.5677 151.567 96.0475 155.182 101.671C159.781 108.834 158.756 91.2487 157.485 86.9774C156.183 82.6047 148.756 74.2414 140.816 69.5677Z" fill="#8D8D8D"/>
<path d="M157.187 103.227C157.187 103.227 157.103 102.987 157.109 103.203C157.174 105.54 158.929 118.533 158.523 120.934C158.083 123.562 160.129 117.6 160.129 117.6L157.187 103.227Z" fill="#8D8D8D"/>
<path d="M130.061 83.1221C130.061 83.1221 134.427 92.6758 140.018 100.708C143.775 106.119 148.81 110.349 150.704 112.338C156.687 118.638 151.597 102.175 149.483 98.1882C147.316 94.1131 138.837 86.4532 130.061 83.1221Z" fill="#8D8D8D"/>
<path d="M153.058 113.447C153.058 113.447 152.973 113.207 152.98 113.423C153.044 115.764 154.908 129.802 154.387 132.189C154.265 132.754 156.112 127.928 156.112 127.928L153.058 113.447Z" fill="#8D8D8D"/>
<path d="M125.009 96.3011C125.009 96.3011 129.909 107.055 136.132 116.125C140.312 122.213 145.885 127.025 147.968 129.271C154.597 136.393 148.817 117.891 146.453 113.4C144.039 108.797 134.661 100.119 125.009 96.3011Z" fill="#8D8D8D"/>
<path d="M114.305 118.067C114.305 118.067 125.564 124.695 133.514 130.938C142.845 138.263 144.498 139.095 147.275 139.998C156.068 142.849 142.879 125.05 138.895 122.46C134.816 119.805 124.278 116.951 114.305 118.067Z" fill="#8D8D8D"/>
<path d="M150.721 130.985C150.682 130.816 150.628 130.649 150.562 130.488C150.647 131.706 152.466 137.269 151.969 138.513C151.851 138.807 152.899 136.352 152.899 136.352L150.721 130.985Z" fill="#8D8D8D"/>
<path d="M149.044 139.42C149.044 139.42 148.871 139.122 148.881 139.176C148.976 139.778 150.85 142.527 150.363 143.14C150.248 143.285 151.276 142.074 151.276 142.074L149.044 139.42Z" fill="#8D8D8D"/>
<path d="M203.309 16.801C203.309 16.801 196.027 30.6394 192.544 33.6628C192.544 33.6628 194.621 24.7043 203.309 16.801Z" fill="#8D8D8D"/>
<path d="M207.073 23.4868C207.073 23.4868 197.465 33.4092 194.056 34.5488C194.056 34.5488 198.442 26.6759 207.073 23.4868Z" fill="#8D8D8D"/>
<path d="M198.905 10.3383C198.905 10.3383 196.538 27.8832 192.537 32.912C192.537 32.912 189.173 23.2298 198.905 10.3383Z" fill="#8D8D8D"/>
<path d="M207.032 29.821C207.032 29.821 195.453 42.885 192.047 46.4833C191.246 47.3288 190.769 47.6636 190.532 47.6433C189.822 47.579 191.256 44.3358 192.487 42.2087C194.13 39.3747 200.606 31.2752 207.032 29.821Z" fill="#8D8D8D"/>
<path d="M190.562 47.3626C190.562 47.3626 190.633 47.2983 190.562 47.4133C189.697 48.6578 184.431 56.2061 183.772 57.6096C183.048 59.1381 184.421 55.5196 184.421 55.5196L190.562 47.3626Z" fill="#8D8D8D"/>
<path d="M194.144 34.4102C194.144 34.4102 194.272 34.3831 194.235 34.4271C193.221 35.5498 190.177 40.7477 189.531 42.1444C188.807 43.673 189.889 40.8357 189.889 40.8357L194.144 34.4102Z" fill="#8D8D8D"/>
<path d="M205.443 36.4224C205.443 36.4224 192.811 54.6843 188.669 58.2589C183.393 62.8041 188.855 52.4793 190.234 50.7343C191.614 48.9893 198.956 38.6307 205.443 36.4224Z" fill="#8D8D8D"/>
<path d="M194.144 34.4102C194.144 34.4102 194.272 34.3831 194.235 34.4271C193.221 35.5498 190.177 40.7477 189.531 42.1444C188.807 43.673 189.889 40.8357 189.889 40.8357L194.144 34.4102Z" fill="#8D8D8D"/>
<path d="M186.91 58.6444C186.91 58.6444 186.984 58.57 186.91 58.7019C185.95 60.0918 180.119 68.5295 179.362 70.0784C178.537 71.7693 180.146 67.7753 180.146 67.7753L186.91 58.6444Z" fill="#8D8D8D"/>
<path d="M207.664 46.994C207.664 46.994 190.397 66.5072 185.412 70.0513C179.068 74.5661 186.667 62.5166 188.483 60.6769C190.299 58.8372 200.799 48.5598 207.664 46.994Z" fill="#8D8D8D"/>
<path d="M183.122 70.6973C183.122 70.6973 183.42 70.3591 183.319 70.5146C182.246 72.0669 175.922 80.2645 175.077 81.9926C174.157 83.8797 175.753 79.7369 175.753 79.7369L183.122 70.6973Z" fill="#8D8D8D"/>
<path d="M205.229 58.7323C205.229 58.7323 186.291 78.5093 181.127 82.3544C174.539 87.248 183.454 73.9404 186.572 70.6093C189.761 67.1971 198.205 60.5518 205.229 58.7323Z" fill="#8D8D8D"/>
<path d="M178.787 83.0985C178.787 83.0985 179.098 82.7603 178.993 82.9023C177.857 84.5594 171.171 93.3184 170.258 95.1513C169.264 97.1534 171.012 92.7671 171.012 92.7671L178.787 83.0985Z" fill="#8D8D8D"/>
<path d="M200.907 70.8325C200.907 70.8325 181.969 90.6095 176.802 94.4546C170.214 99.3482 179.128 86.0406 182.247 82.7095C185.439 79.2973 193.883 72.6486 200.907 70.8325Z" fill="#8D8D8D"/>
<path d="M174.462 95.1986C174.462 95.1986 174.776 94.8605 174.671 95.0025C173.532 96.6596 166.653 105.723 165.74 107.556C164.746 109.558 166.622 104.746 166.622 104.746L174.462 95.1986Z" fill="#8D8D8D"/>
<path d="M199.386 82.5134C199.386 82.5134 178.483 102.361 173.315 106.207C166.727 111.1 177.241 96.2064 180.356 92.8787C183.538 89.4664 192.365 84.3261 199.386 82.5134Z" fill="#8D8D8D"/>
<path d="M171.323 106.988C171.323 106.988 171.502 106.802 171.377 106.988C170.025 108.99 161.705 119.71 160.555 121.902C159.314 124.289 161.57 118.571 161.57 118.571L171.323 106.988Z" fill="#8D8D8D"/>
<path d="M197.664 97.221C197.664 97.221 189.852 104.248 182.219 109.626C177.093 113.237 171.912 115.49 169.747 116.677C162.886 120.437 175.003 107.654 178.425 104.803C181.918 101.881 190.928 97.6437 197.664 97.221Z" fill="#8D8D8D"/>
<path d="M167.816 116.964C167.816 116.964 167.999 116.782 167.874 116.964C166.521 118.966 157.549 130.562 156.484 132.767C156.233 133.292 157.941 128.608 157.941 128.608L167.816 116.964Z" fill="#8D8D8D"/>
<path d="M192.984 110.014C192.984 110.014 184.191 117.925 175.638 124.015C169.889 128.104 164.096 130.694 161.668 132.047C153.985 136.339 167.637 121.986 171.475 118.77C175.422 115.476 185.49 110.603 192.984 110.014Z" fill="#8D8D8D"/>
<path d="M186.575 131.8C186.575 131.8 176.619 134.37 168.702 137.549C159.416 141.269 158.033 141.52 155.99 141.52C149.527 141.52 166.873 129.849 170.532 128.726C174.282 127.559 181.705 128.043 186.575 131.8Z" fill="#8D8D8D"/>
<path d="M159.189 132.757C159.189 132.757 159.625 132.28 159.554 132.375C158.821 133.39 154.671 137.695 154.242 138.909C154.14 139.193 154.948 136.782 154.948 136.782L159.189 132.757Z" fill="#8D8D8D"/>
<path d="M155.341 140.512C155.341 140.512 155.604 140.299 155.571 140.346C155.175 140.837 152.588 142.686 152.527 143.353C152.527 143.512 152.628 142.176 152.628 142.176L155.341 140.512Z" fill="#8D8D8D"/>
<path d="M14.494 60.9982L60.0473 175.274H57.1795L14.494 60.9982Z" fill="#8D8D8D"/>
<path d="M14.0949 41.5932C14.0949 41.5932 16.6144 56.8351 14.494 60.9982C14.494 60.9982 9.12024 52.2967 14.0949 41.5932Z" fill="#8D8D8D"/>
<path d="M25.5797 45.7427C25.5797 45.7427 21.2002 58.6106 17.4632 61.103C17.4463 61.103 16.3574 52.3237 25.5797 45.7427Z" fill="#8D8D8D"/>
<path d="M1.91695 37.9171C1.91695 37.9171 14.795 54.2108 13.794 60.3489C13.794 60.3489 0.100902 53.4161 1.91695 37.9171Z" fill="#8D8D8D"/>
<path d="M31.3795 51.2686C31.3795 51.2686 27.115 67.7348 25.6304 72.3679C25.2922 73.4568 24.9202 73.954 24.5651 74.0419C23.5066 74.3023 22.536 70.8494 22.3027 68.4551C22.0118 65.266 23.6588 55.3674 31.3795 51.2686Z" fill="#8D8D8D"/>
<path d="M24.3487 73.7781C24.3487 73.7781 24.3892 73.6936 24.3825 73.8288C24.3115 75.2932 23.8651 84.1806 24.2235 85.6889C24.6192 87.3359 23.209 83.5854 23.209 83.5854L24.3487 73.7781Z" fill="#8D8D8D"/>
<path d="M17.443 60.9474C17.443 60.9474 17.6019 60.8629 17.585 60.917C17.1961 62.3441 17.7236 68.1981 18.0821 69.7098C18.4744 71.3567 17.3821 68.4145 17.3821 68.4145L17.443 60.9474Z" fill="#8D8D8D"/>
<path d="M35.2551 57.7042C35.2551 57.7042 34.3217 79.1518 31.7751 84.0893C28.532 90.366 26.7024 78.9828 27.0406 76.8522C27.3788 74.7216 28.1262 62.4895 35.2551 57.7042Z" fill="#8D8D8D"/>
<path d="M17.443 60.9474C17.443 60.9474 17.6019 60.8629 17.585 60.917C17.1961 62.3441 17.7236 68.1981 18.0821 69.7098C18.4744 71.3567 17.3821 68.4145 17.3821 68.4145L17.443 60.9474Z" fill="#8D8D8D"/>
<path d="M29.6311 85.2053C29.6311 85.2053 29.6717 85.1073 29.6683 85.2594C29.6006 86.8929 29.1711 96.7983 29.5364 98.479C29.9321 100.315 28.5218 96.1354 28.5218 96.1354L29.6311 85.2053Z" fill="#8D8D8D"/>
<path d="M48.1398 65.9221C48.1398 65.9221 41.8124 90.5013 38.0586 95.7837C33.2834 102.507 32.8675 88.6819 33.7332 86.2774C34.599 83.8729 39.9051 70.3084 48.1398 65.9221Z" fill="#8D8D8D"/>
<path d="M35.4445 97.3596C35.4445 97.3596 35.5628 96.9437 35.5561 97.1128C35.4783 98.9356 34.1323 108.854 34.5415 110.728C34.9879 112.774 33.4052 108.472 33.4052 108.472L35.4445 97.3596Z" fill="#8D8D8D"/>
<path d="M55.5495 77.2005C55.5495 77.2005 47.1321 102.744 43.3749 108.371C38.6065 115.53 38.8804 100.028 40.1993 95.7567C41.5588 91.3839 47.3215 81.8742 55.5495 77.2005Z" fill="#8D8D8D"/>
<path d="M40.7708 110.048C40.7708 110.048 40.8892 109.605 40.8825 109.784C40.8081 111.729 39.4722 122.297 39.8848 124.289C40.3312 126.47 38.7451 121.885 38.7451 121.885L40.7708 110.048Z" fill="#8D8D8D"/>
<path d="M60.6357 89.6355C60.6357 89.6355 52.215 115.179 48.4611 120.806C43.6928 127.969 43.9701 112.463 45.2856 108.195C46.6417 103.809 52.4077 94.3025 60.6357 89.6355Z" fill="#8D8D8D"/>
<path d="M45.8571 122.477C45.8571 122.477 45.9721 122.034 45.9653 122.213C45.8909 124.154 44.5619 135.064 44.9711 137.066C45.4209 139.247 43.6183 134.235 43.6183 134.235L45.8571 122.477Z" fill="#8D8D8D"/>
<path d="M69.2831 100.457C69.2831 100.457 58.1433 126.934 54.403 132.561C49.6346 139.724 50.683 122.138 52.0155 117.867C53.358 113.488 61.0551 105.124 69.2831 100.457Z" fill="#8D8D8D"/>
<path d="M52.3164 134.11C52.3164 134.11 52.4044 133.87 52.3976 134.086C52.3333 136.423 50.5139 149.413 50.9299 151.817C51.3864 154.445 49.2694 148.483 49.2694 148.483L52.3164 134.11Z" fill="#8D8D8D"/>
<path d="M80.4296 114.005C80.4296 114.005 75.9047 123.559 70.1083 131.591C66.2192 137.002 60.9773 141.232 59.0361 143.221C52.8339 149.521 58.1095 133.058 60.3009 129.071C62.5465 124.996 71.3325 117.336 80.4296 114.005Z" fill="#8D8D8D"/>
<path d="M56.5978 144.33C56.5978 144.33 56.6824 144.09 56.6756 144.306C56.6114 146.646 54.6803 160.685 55.218 163.072C55.3465 163.637 53.4291 158.811 53.4291 158.811L56.5978 144.33Z" fill="#8D8D8D"/>
<path d="M85.6647 127.174C85.6647 127.174 80.5919 137.928 74.136 146.998C69.8073 153.086 64.0311 157.898 61.8633 160.143C54.9915 167.266 60.9807 148.764 63.4325 144.272C65.9418 139.687 75.6612 131.009 85.6647 127.174Z" fill="#8D8D8D"/>
<path d="M96.7571 148.95C96.7571 148.95 85.0932 155.578 76.8483 161.821C67.1796 169.146 65.4684 169.978 62.5905 170.881C53.4595 173.732 67.1526 155.933 71.275 153.343C75.5023 150.688 86.4189 147.834 96.7571 148.95Z" fill="#8D8D8D"/>
<path d="M59.0091 161.865C59.0091 161.865 59.1815 161.259 59.1748 161.371C59.0869 162.588 57.1998 168.135 57.7172 169.396C57.839 169.69 56.75 167.235 56.75 167.235L59.0091 161.865Z" fill="#8D8D8D"/>
<path d="M60.7575 170.302C60.7575 170.302 60.9333 170.005 60.9266 170.059C60.8251 170.661 58.8975 173.41 59.3912 174.022C59.5096 174.168 58.4443 172.957 58.4443 172.957L60.7575 170.302Z" fill="#8D8D8D"/>
<path d="M4.52096 47.7008C4.52096 47.7008 12.0658 61.5392 15.681 64.5626C15.6742 64.5457 13.5369 55.5805 4.52096 47.7008Z" fill="#8D8D8D"/>
<path d="M0.618332 54.3698C0.618332 54.3698 10.5744 64.2921 14.1085 65.4317C14.1085 65.4317 9.56329 57.5588 0.618332 54.3698Z" fill="#8D8D8D"/>
<path d="M9.08305 41.2212C9.08305 41.2212 11.5315 58.7662 15.681 63.7949C15.681 63.7949 19.1677 54.1263 9.08305 41.2212Z" fill="#8D8D8D"/>
<path d="M0.658905 60.7039C0.658905 60.7039 12.661 73.768 16.1917 77.3662C17.0202 78.2117 17.514 78.5465 17.7608 78.5262C18.4981 78.462 17.0101 75.2188 15.7317 73.0916C14.0307 70.2576 7.32112 62.1581 0.658905 60.7039Z" fill="#8D8D8D"/>
<path d="M17.7304 78.2354C17.7304 78.2354 17.6594 78.1711 17.7304 78.2895C18.63 79.534 24.0849 87.0822 24.7714 88.4857C25.5188 90.0143 24.095 86.3924 24.095 86.3924L17.7304 78.2354Z" fill="#8D8D8D"/>
<path d="M14.0307 65.2863C14.0307 65.2863 13.8954 65.2593 13.936 65.3032C14.9877 66.426 18.1261 71.6239 18.8126 73.0206C19.56 74.5492 18.4406 71.7118 18.4406 71.7118L14.0307 65.2863Z" fill="#8D8D8D"/>
<path d="M2.29231 67.3154C2.29231 67.3154 15.3834 85.5773 19.6783 89.1418C25.1468 93.687 19.4856 83.3622 18.0551 81.6172C16.6245 79.8722 9.03231 69.5136 2.29231 67.3154Z" fill="#8D8D8D"/>
<path d="M14.0307 65.2863C14.0307 65.2863 13.8954 65.2593 13.936 65.3032C14.9877 66.426 18.1261 71.6239 18.8126 73.0206C19.56 74.5492 18.4406 71.7118 18.4406 71.7118L14.0307 65.2863Z" fill="#8D8D8D"/>
<path d="M21.5147 89.5273C21.5147 89.5273 21.4369 89.4529 21.5147 89.5814C22.5089 90.9747 28.5523 99.4124 29.3369 100.961C30.1925 102.652 28.5252 98.6583 28.5252 98.6583L21.5147 89.5273Z" fill="#8D8D8D"/>
<path d="M0.00621033 77.8769C0.00621033 77.8769 17.9029 97.3867 23.0669 100.934C29.6412 105.449 21.7649 93.3995 19.8812 91.5598C17.9976 89.7201 7.11821 79.4427 0.00621033 77.8769Z" fill="#8D8D8D"/>
<path d="M25.4342 101.59C25.4342 101.59 25.1265 101.252 25.2279 101.408C26.3372 102.96 32.8946 111.158 33.7671 112.886C34.7241 114.773 33.0738 110.63 33.0738 110.63L25.4342 101.59Z" fill="#8D8D8D"/>
<path d="M2.53244 89.6152C2.53244 89.6152 22.1471 109.392 27.5107 113.237C34.3386 118.131 25.0994 104.823 21.8698 101.492C18.559 98.0901 9.80677 91.4313 2.53244 89.6152Z" fill="#8D8D8D"/>
<path d="M29.9253 113.985C29.9253 113.985 29.604 113.647 29.7122 113.789C30.8891 115.446 37.8287 124.205 38.762 126.038C39.7935 128.04 37.9842 123.653 37.9842 123.653L29.9253 113.985Z" fill="#8D8D8D"/>
<path d="M7.00999 101.715C7.00999 101.715 26.6246 121.492 31.9882 125.338C38.8161 130.231 29.577 116.924 26.3473 113.592C23.0399 110.18 14.2877 103.531 7.00999 101.715Z" fill="#8D8D8D"/>
<path d="M34.413 126.082C34.413 126.082 34.0748 125.743 34.1999 125.885C35.3768 127.543 42.5091 136.602 43.4526 138.439C44.4672 140.441 42.5395 135.628 42.5395 135.628L34.413 126.082Z" fill="#8D8D8D"/>
<path d="M8.58254 113.396C8.58254 113.396 30.2635 133.261 35.6135 137.089C42.4381 141.983 31.5553 127.089 28.3155 123.758C25.0081 120.349 15.8603 115.209 8.58254 113.396Z" fill="#8D8D8D"/>
<path d="M37.6697 137.871C37.6697 137.871 37.4803 137.685 37.6122 137.871C39.0191 139.873 47.636 150.593 48.8128 152.781C50.1013 155.172 47.7746 149.453 47.7746 149.453L37.6697 137.871Z" fill="#8D8D8D"/>
<path d="M10.3817 128.104C10.3817 128.104 18.4778 135.131 26.3879 140.508C31.6974 144.12 37.0677 146.369 39.3133 147.56C46.4151 151.32 33.8651 138.537 30.3176 135.686C26.6855 132.764 17.3516 128.527 10.3817 128.104Z" fill="#8D8D8D"/>
<path d="M41.3018 147.847C41.3018 147.847 41.1124 147.664 41.2443 147.847C42.6511 149.849 51.9444 161.445 53.0469 163.65C53.3073 164.175 51.5352 159.491 51.5352 159.491L41.3018 147.847Z" fill="#8D8D8D"/>
<path d="M15.2211 140.897C15.2211 140.897 24.325 148.818 33.1955 154.905C39.1543 158.994 45.1605 161.584 47.6732 162.937C55.6272 167.222 41.4878 152.876 37.5006 149.653C33.4187 146.359 22.979 141.496 15.2211 140.897Z" fill="#8D8D8D"/>
<path d="M21.8596 162.683C21.8596 162.683 32.1776 165.253 40.3853 168.432C50.01 172.152 51.4439 172.403 53.5745 172.403C60.2705 172.403 42.2994 160.732 38.505 159.609C34.6024 158.442 26.9087 158.926 21.8596 162.683Z" fill="#8D8D8D"/>
<path d="M50.2434 163.64C50.1285 163.506 50.0066 163.379 49.8781 163.258C50.6424 164.273 54.9509 168.578 55.3871 169.788C55.492 170.076 54.6533 167.665 54.6533 167.665L50.2434 163.64Z" fill="#8D8D8D"/>
<path d="M54.2305 171.391C54.2305 171.391 53.9566 171.182 53.9938 171.226C54.403 171.719 57.0814 173.569 57.166 174.236C57.1829 174.394 57.0611 173.059 57.0611 173.059L54.2305 171.391Z" fill="#8D8D8D"/>
<path d="M202.423 85.4826L160.204 172.091L162.375 172.281L202.423 85.4826Z" fill="#8D8D8D"/>
<path d="M204.042 70.2948C204.042 70.2948 201.1 82.0805 202.423 85.4827C202.423 85.4827 207.079 79.0132 204.042 70.2948Z" fill="#8D8D8D"/>
<path d="M195.07 72.7974C195.07 72.7974 197.509 83.1729 200.18 85.371C200.18 85.371 201.601 78.56 195.07 72.7974Z" fill="#8D8D8D"/>
<path d="M213.505 68.2116C213.505 68.2116 202.656 80.1427 202.997 85.0193C202.997 85.0193 213.826 80.4809 213.505 68.2116Z" fill="#8D8D8D"/>
<path d="M190.309 76.7474C190.309 76.7474 192.416 89.9365 193.217 93.6566C193.407 94.5324 193.647 94.9484 193.91 95.0397C194.695 95.3136 195.666 92.6724 196 90.809C196.443 88.3369 195.872 80.4708 190.309 76.7474Z" fill="#8D8D8D"/>
<path d="M194.1 94.8571C194.1 94.8571 194.076 94.7861 194.069 94.8943C194.025 96.0475 193.758 103.048 193.393 104.204C192.984 105.469 194.306 102.622 194.306 102.622L194.1 94.8571Z" fill="#8D8D8D"/>
<path d="M200.194 85.2391C200.194 85.2391 200.082 85.1647 200.089 85.2087C200.285 86.3518 199.491 90.9071 199.115 92.0637C198.706 93.3285 199.734 91.0931 199.734 91.0931L200.194 85.2391Z" fill="#8D8D8D"/>
<path d="M186.941 81.5394C186.941 81.5394 186.19 98.4216 187.783 102.456C189.812 107.59 191.969 98.7834 191.861 97.0925C191.753 95.4016 192.007 85.76 186.941 81.5394Z" fill="#8D8D8D"/>
<path d="M200.194 85.2391C200.194 85.2391 200.082 85.1647 200.089 85.2087C200.285 86.3518 199.491 90.9071 199.115 92.0637C198.706 93.3285 199.734 91.0931 199.734 91.0931L200.194 85.2391Z" fill="#8D8D8D"/>
<path d="M189.328 103.471C189.328 103.471 189.301 103.393 189.298 103.511C189.237 104.796 188.888 112.591 188.5 113.883C188.073 115.297 189.43 112.111 189.43 112.111L189.328 103.471Z" fill="#8D8D8D"/>
<path d="M176.636 87.1397C176.636 87.1397 179.751 106.825 182.233 111.212C185.392 116.795 186.629 105.98 186.153 104.042C185.676 102.104 182.564 91.1202 176.636 87.1397Z" fill="#8D8D8D"/>
<path d="M184.103 112.632C184.103 112.632 184.042 112.294 184.035 112.432C183.971 113.866 184.316 121.729 183.88 123.173C183.406 124.749 184.894 121.482 184.894 121.482L184.103 112.632Z" fill="#8D8D8D"/>
<path d="M170.271 95.4962C170.271 95.4962 174.908 116.075 177.373 120.732C180.495 126.656 181.337 114.485 180.63 111.049C179.883 107.532 176.169 99.6999 170.271 95.4962Z" fill="#8D8D8D"/>
<path d="M179.213 122.22C179.213 122.22 179.152 121.864 179.145 122.003C179.071 123.532 179.362 131.902 178.919 133.44C178.432 135.131 179.933 131.631 179.933 131.631L179.213 122.22Z" fill="#8D8D8D"/>
<path d="M165.574 104.905C165.574 104.905 170.207 125.483 172.676 130.14C175.797 136.068 176.643 123.894 175.936 120.461C175.195 116.94 171.479 109.112 165.574 104.905Z" fill="#8D8D8D"/>
<path d="M174.522 131.628C174.522 131.628 174.465 131.29 174.458 131.415C174.38 132.943 174.644 141.587 174.201 143.126C173.714 144.817 175.415 140.995 175.415 140.995L174.522 131.628Z" fill="#8D8D8D"/>
<path d="M158.296 112.825C158.296 112.825 164.925 134.313 167.377 138.973C170.498 144.898 170.887 131.043 170.18 127.607C169.456 124.09 164.201 117.028 158.296 112.825Z" fill="black"/>
<path d="M168.844 140.326C168.844 140.326 168.794 140.133 168.783 140.302C168.675 142.139 169.169 152.443 168.689 154.3C168.168 156.329 170.173 151.794 170.173 151.794L168.844 140.326Z" fill="black"/>
<path d="M148.942 122.72C148.942 122.72 151.715 130.498 155.554 137.194C158.131 141.682 161.797 145.351 163.143 147.039C167.407 152.382 164.532 139.132 163.143 135.879C161.722 132.51 155.598 125.929 148.942 122.72Z" fill="black"/>
<path d="M164.911 148.06C164.911 148.06 164.864 147.867 164.854 148.036C164.746 149.873 165.253 161.006 164.685 162.842C164.549 163.278 166.325 159.619 166.325 159.619L164.911 148.06Z" fill="black"/>
<path d="M144.086 132.713C144.086 132.713 147.197 141.476 151.462 149.01C154.323 154.083 158.367 158.216 159.855 160.12C164.57 166.153 161.296 151.256 159.744 147.573C158.158 143.799 151.394 136.366 144.086 132.713Z" fill="black"/>
<path d="M134.218 149.051C134.218 149.051 142.591 155.01 148.404 160.444C155.222 166.819 156.46 167.587 158.577 168.48C165.276 171.314 156.142 156.464 153.197 154.161C150.18 151.804 142.114 148.851 134.218 149.051Z" fill="black"/>
<path d="M161.891 161.648C161.871 161.513 161.84 161.38 161.8 161.249C161.8 162.21 162.815 166.694 162.358 167.634C162.243 167.857 163.234 166.008 163.234 166.008L161.891 161.648Z" fill="black"/>
<path d="M160.004 168.148C160.004 168.148 159.889 167.901 159.893 167.945C159.926 168.426 161.208 170.708 160.782 171.155C160.684 171.263 161.57 170.38 161.57 170.38L160.004 168.148Z" fill="black"/>
<path d="M210.87 75.699C210.87 75.699 204.222 86.0542 201.29 88.1847C201.29 88.1847 203.512 81.2993 210.87 75.699Z" fill="#8D8D8D"/>
<path d="M213.37 81.1809C213.37 81.1809 205.162 88.3098 202.416 88.9592C202.416 88.9828 206.386 83.1086 213.37 81.1809Z" fill="#8D8D8D"/>
<path d="M207.857 70.332C207.857 70.332 204.813 83.927 201.334 87.5963C201.334 87.6064 199.355 79.7775 207.857 70.332Z" fill="#8D8D8D"/>
<path d="M212.91 86.159C212.91 86.159 202.94 95.6281 200.028 98.2051C199.352 98.8138 198.946 99.0438 198.76 99.01C198.209 98.9153 199.551 96.4668 200.664 94.8841C202.145 92.7739 207.769 86.8624 212.91 86.159Z" fill="#8D8D8D"/>
<path d="M198.801 98.7868C198.801 98.7868 198.861 98.7428 198.801 98.8274C198.036 99.7438 193.39 105.307 192.784 106.359C192.108 107.509 193.434 104.766 193.434 104.766L198.801 98.7868Z" fill="#8D8D8D"/>
<path d="M202.49 88.8814C202.49 88.8814 202.595 88.8814 202.561 88.9017C201.692 89.7133 198.963 93.5821 198.347 94.6339C197.671 95.7803 198.719 93.6193 198.719 93.6193L202.49 88.8814Z" fill="#8D8D8D"/>
<path d="M211.225 91.2284C211.225 91.2284 200.082 104.691 196.589 107.208C192.145 110.414 197.127 102.689 198.327 101.414C199.528 100.139 205.977 92.5168 211.225 91.2284Z" fill="#8D8D8D"/>
<path d="M202.49 88.8814C202.49 88.8814 202.595 88.8814 202.561 88.9017C201.692 89.7133 198.963 93.5821 198.347 94.6339C197.671 95.7803 198.719 93.6193 198.719 93.6193L202.49 88.8814Z" fill="#8D8D8D"/>
<path d="M195.175 107.39C195.175 107.39 195.24 107.339 195.175 107.434C194.326 108.449 189.183 114.678 188.483 115.841C187.722 117.11 189.254 114.09 189.254 114.09L195.175 107.39Z" fill="#8D8D8D"/>
<path d="M212.237 99.666C212.237 99.666 197.373 113.792 193.224 116.237C187.945 119.345 194.722 110.414 196.268 109.095C197.813 107.776 206.751 100.427 212.237 99.666Z" fill="#8D8D8D"/>
<path d="M191.391 116.592C191.391 116.592 191.645 116.355 191.557 116.46C190.613 117.607 185.097 123.603 184.316 124.915C183.467 126.332 184.993 123.19 184.993 123.19L191.391 116.592Z" fill="#8D8D8D"/>
<path d="M209.531 108.706C209.531 108.706 193.349 122.909 189.03 125.588C183.532 128.97 191.425 119.162 194.103 116.748C196.829 114.289 203.9 109.649 209.531 108.706Z" fill="#8D8D8D"/>
<path d="M187.143 126.011C187.143 126.011 187.414 125.757 187.319 125.872C186.305 127.093 180.481 133.505 179.643 134.881C178.726 136.386 180.393 133.065 180.393 133.065L187.143 126.011Z" fill="#8D8D8D"/>
<path d="M205.321 117.898C205.321 117.898 189.139 132.118 184.82 134.78C179.321 138.161 187.214 128.354 189.893 125.943C192.619 123.484 199.693 118.841 205.321 117.898Z" fill="#8D8D8D"/>
<path d="M182.933 135.206C182.933 135.206 183.204 134.952 183.109 135.064C182.094 136.285 176.095 142.923 175.256 144.3C174.34 145.804 176.139 142.159 176.139 142.159L182.933 135.206Z" fill="#8D8D8D"/>
<path d="M203.336 126.951C203.336 126.951 185.598 141.094 181.279 143.758C175.784 147.14 185.033 136.183 187.705 133.785C190.437 131.327 197.708 127.894 203.336 126.951Z" fill="#8D8D8D"/>
<path d="M179.67 144.232C179.67 144.232 179.825 144.103 179.714 144.232C178.513 145.71 171.259 153.549 170.227 155.189C169.091 156.978 171.242 152.646 171.242 152.646L179.67 144.232Z" fill="#8D8D8D"/>
<path d="M200.979 138.364C196.81 141.474 192.487 144.37 188.026 147.042C183.765 149.524 179.548 150.938 177.769 151.723C172.135 154.205 182.504 145.006 185.381 143.001C188.327 140.951 195.676 138.239 200.979 138.364Z" fill="#8D8D8D"/>
<path d="M176.247 151.821C176.247 151.821 176.399 151.689 176.288 151.821C175.087 153.299 167.272 161.78 166.288 163.437C166.054 163.83 167.711 160.275 167.711 160.275L176.247 151.821Z" fill="#8D8D8D"/>
<path d="M196.45 148.077C196.45 148.077 189.01 153.684 181.908 157.884C177.123 160.698 172.405 162.335 170.41 163.234C164.096 166.075 175.774 155.75 179.007 153.488C182.307 151.185 190.539 148.04 196.45 148.077Z" fill="#8D8D8D"/>
<path d="M189.947 164.712C189.947 164.712 181.966 166.065 175.544 167.996C168.009 170.272 166.907 170.363 165.307 170.245C160.234 169.805 174.631 161.831 177.576 161.199C180.593 160.563 186.383 161.445 189.947 164.712Z" fill="#8D8D8D"/>
<path d="M168.408 163.613C168.508 163.517 168.613 163.425 168.723 163.339C168.077 164.093 164.532 167.178 164.113 168.101C164.015 168.317 164.813 166.481 164.813 166.481L168.408 163.613Z" fill="black"/>
<path d="M164.861 169.447C164.861 169.447 165.084 169.301 165.053 169.335C164.715 169.694 162.557 170.969 162.449 171.486C162.426 171.608 162.608 170.57 162.608 170.57L164.861 169.447Z" fill="black"/>
<path d="M66.6825 0.5H152.476C162.181 0.5 170.049 8.36749 170.049 18.0725V192.115C170.049 201.82 162.181 209.688 152.476 209.688H66.6825C56.9774 209.688 49.1099 201.82 49.1099 192.115V18.0725C49.1099 8.36749 56.9774 0.5 66.6825 0.5Z" fill="black" stroke="white"/>
<path d="M152.912 8.20772H65.9216C59.3079 8.20772 53.9465 13.5691 53.9465 20.1828V192.146C53.9465 198.759 59.3079 204.121 65.9216 204.121H152.912C159.526 204.121 164.888 198.759 164.888 192.146V20.1828C164.888 13.5691 159.526 8.20772 152.912 8.20772Z" fill="white"/>
<path d="M82.9051 4.21663H133.917C136.377 4.21663 138.371 6.21093 138.371 8.67102V8.6744C138.371 11.1345 136.377 13.1288 133.917 13.1288H82.9051C80.445 13.1288 78.4507 11.1345 78.4507 8.6744V8.67102C78.4507 6.21093 80.445 4.21663 82.9051 4.21663Z" fill="black" stroke="white"/>
<path d="M120.379 4.57224H97.1731C96.1346 4.57224 95.2928 5.41407 95.2928 6.45254V6.45592C95.2928 7.49438 96.1346 8.33622 97.1731 8.33622H120.379C121.418 8.33622 122.26 7.49438 122.26 6.45592V6.45254C122.26 5.41407 121.418 4.57224 120.379 4.57224Z" fill="white"/>
<path d="M152.209 33.328H68.6203C65.8915 33.328 63.6794 35.5401 63.6794 38.2688V56.3684C63.6794 59.0972 65.8915 61.3093 68.6203 61.3093H152.209C154.938 61.3093 157.15 59.0972 157.15 56.3684V38.2688C157.15 35.5401 154.938 33.328 152.209 33.328Z" fill="#F5F5FC"/>
<path d="M77.9237 57.197C83.4858 57.197 87.9948 52.688 87.9948 47.1259C87.9948 41.5638 83.4858 37.0548 77.9237 37.0548C72.3616 37.0548 67.8526 41.5638 67.8526 47.1259C67.8526 52.688 72.3616 57.197 77.9237 57.197Z" fill="black"/>
<path d="M147.512 37.9374H95.3537C94.1733 37.9374 93.2163 38.8943 93.2163 40.0747C93.2163 41.2552 94.1733 42.2121 95.3537 42.2121H147.512C148.692 42.2121 149.649 41.2552 149.649 40.0747C149.649 38.8943 148.692 37.9374 147.512 37.9374Z" fill="black"/>
<path d="M135.54 45.0393H95.3537C94.1733 45.0393 93.2163 45.9962 93.2163 47.1766C93.2163 48.357 94.1733 49.3139 95.3537 49.3139H135.54C136.72 49.3139 137.677 48.357 137.677 47.1766C137.677 45.9962 136.72 45.0393 135.54 45.0393Z" fill="black"/>
<path d="M104.809 52.9189H95.3537C94.1733 52.9189 93.2163 53.8759 93.2163 55.0563C93.2163 56.2367 94.1733 57.1936 95.3537 57.1936H104.809C105.99 57.1936 106.947 56.2367 106.947 55.0563C106.947 53.8759 105.99 52.9189 104.809 52.9189Z" fill="black"/>
<path d="M152.209 105.517H68.6203C65.8915 105.517 63.6794 107.729 63.6794 110.457V128.557C63.6794 131.286 65.8915 133.498 68.6203 133.498H152.209C154.938 133.498 157.15 131.286 157.15 128.557V110.457C157.15 107.729 154.938 105.517 152.209 105.517Z" fill="#F5F5FC"/>
<path d="M77.9237 129.386C83.4858 129.386 87.9948 124.877 87.9948 119.315C87.9948 113.752 83.4858 109.243 77.9237 109.243C72.3616 109.243 67.8526 113.752 67.8526 119.315C67.8526 124.877 72.3616 129.386 77.9237 129.386Z" fill="black"/>
<path d="M147.512 110.129H95.3537C94.1733 110.129 93.2163 111.086 93.2163 112.267C93.2163 113.447 94.1733 114.404 95.3537 114.404H147.512C148.692 114.404 149.649 113.447 149.649 112.267C149.649 111.086 148.692 110.129 147.512 110.129Z" fill="black"/>
<path d="M135.54 117.231H95.3537C94.1733 117.231 93.2163 118.188 93.2163 119.369C93.2163 120.549 94.1733 121.506 95.3537 121.506H135.54C136.72 121.506 137.677 120.549 137.677 119.369C137.677 118.188 136.72 117.231 135.54 117.231Z" fill="black"/>
<path d="M104.809 125.111H95.3537C94.1733 125.111 93.2163 126.068 93.2163 127.248C93.2163 128.429 94.1733 129.386 95.3537 129.386H104.809C105.99 129.386 106.947 128.429 106.947 127.248C106.947 126.068 105.99 125.111 104.809 125.111Z" fill="black"/>
<path d="M152.209 139.754H68.6203C65.8915 139.754 63.6794 141.966 63.6794 144.695V162.795C63.6794 165.524 65.8915 167.736 68.6203 167.736H152.209C154.938 167.736 157.15 165.524 157.15 162.795V144.695C157.15 141.966 154.938 139.754 152.209 139.754Z" fill="#F5F5FC"/>
<path d="M77.9237 163.62C83.4858 163.62 87.9948 159.111 87.9948 153.549C87.9948 147.987 83.4858 143.478 77.9237 143.478C72.3616 143.478 67.8526 147.987 67.8526 153.549C67.8526 159.111 72.3616 163.62 77.9237 163.62Z" fill="black"/>
<path d="M147.512 144.364H95.3537C94.1733 144.364 93.2163 145.321 93.2163 146.501C93.2163 147.682 94.1733 148.638 95.3537 148.638H147.512C148.692 148.638 149.649 147.682 149.649 146.501C149.649 145.321 148.692 144.364 147.512 144.364Z" fill="black"/>
<path d="M135.54 151.466H95.3537C94.1733 151.466 93.2163 152.423 93.2163 153.603C93.2163 154.783 94.1733 155.74 95.3537 155.74H135.54C136.72 155.74 137.677 154.783 137.677 153.603C137.677 152.423 136.72 151.466 135.54 151.466Z" fill="black"/>
<path d="M104.809 159.345H95.3537C94.1733 159.345 93.2163 160.302 93.2163 161.483C93.2163 162.663 94.1733 163.62 95.3537 163.62H104.809C105.99 163.62 106.947 162.663 106.947 161.483C106.947 160.302 105.99 159.345 104.809 159.345Z" fill="black"/>
<path d="M130.318 72.0838H46.7296C44.0009 72.0838 41.7888 74.2959 41.7888 77.0247V95.1242C41.7888 97.853 44.0009 100.065 46.7296 100.065H130.318C133.047 100.065 135.259 97.853 135.259 95.1242V77.0247C135.259 74.2959 133.047 72.0838 130.318 72.0838Z" fill="#F5F5FC"/>
<path d="M126.26 67.3492H42.6714C39.9427 67.3492 37.7306 69.5613 37.7306 72.2901V90.3897C37.7306 93.1184 39.9427 95.3306 42.6714 95.3306H126.26C128.989 95.3306 131.201 93.1184 131.201 90.3897V72.2901C131.201 69.5613 128.989 67.3492 126.26 67.3492Z" fill="black"/>
<path d="M51.9749 91.2182C57.537 91.2182 62.046 86.7092 62.046 81.1471C62.046 75.585 57.537 71.076 51.9749 71.076C46.4127 71.076 41.9038 75.585 41.9038 81.1471C41.9038 86.7092 46.4127 91.2182 51.9749 91.2182Z" fill="white"/>
<path d="M121.563 71.9587H69.4048C68.2244 71.9587 67.2675 72.9156 67.2675 74.096C67.2675 75.2764 68.2244 76.2333 69.4048 76.2333H121.563C122.743 76.2333 123.7 75.2764 123.7 74.096C123.7 72.9156 122.743 71.9587 121.563 71.9587Z" fill="white"/>
<path d="M109.591 79.0605H69.4048C68.2244 79.0605 67.2675 80.0174 67.2675 81.1979C67.2675 82.3783 68.2244 83.3352 69.4048 83.3352H109.591C110.772 83.3352 111.729 82.3783 111.729 81.1979C111.729 80.0174 110.772 79.0605 109.591 79.0605Z" fill="white"/>
<path d="M78.8605 86.9402H69.4048C68.2244 86.9402 67.2675 87.8971 67.2675 89.0775C67.2675 90.2579 68.2244 91.2149 69.4048 91.2149H78.8605C80.0409 91.2149 80.9978 90.2579 80.9978 89.0775C80.9978 87.8971 80.0409 86.9402 78.8605 86.9402Z" fill="white"/>
<path d="M97.3151 268.609C96.5452 268.634 95.7879 268.409 95.1556 267.97C94.5232 267.53 94.0495 266.898 93.8048 266.167C93.3786 264.81 93.3976 263.353 93.8589 262.008C94.8261 259.038 97.5282 252.278 99.2225 247.943C99.5301 247.201 100.051 246.568 100.718 246.123C101.386 245.677 102.17 245.44 102.973 245.44L195.047 244.426C195.047 244.426 200.265 243.891 200.492 248.991C200.718 254.091 200.644 263.195 200.644 263.195C200.644 263.195 201.34 266.678 196.457 266.759C193.234 266.806 111.515 268.342 97.3151 268.609Z" fill="black"/>
<path d="M97.9002 264.882C97.0469 264.906 96.2003 264.726 95.4314 264.355C94.2715 263.773 93.0641 262.603 93.8217 260.317C94.7821 257.347 98.1707 248.555 99.8549 244.219C100.156 243.479 100.671 242.846 101.333 242.4C101.996 241.954 102.776 241.715 103.575 241.713L195.064 240.719C195.064 240.719 200.248 240.185 200.475 245.284C200.701 250.384 200.63 259.488 200.63 259.488C200.63 259.488 201.307 262.971 196.467 263.053C193.139 263.09 106.869 264.713 97.9002 264.882Z" fill="#F5F5FC"/>
<path d="M112.726 261.918C119.63 261.843 125.185 257.796 125.131 252.878C125.078 247.961 119.438 244.035 112.533 244.11C105.629 244.185 100.074 248.231 100.128 253.149C100.181 258.066 105.821 261.992 112.726 261.918Z" fill="white"/>
<path d="M191.66 244.387L131.893 245.034C130.931 245.044 130.16 245.833 130.17 246.794C130.18 247.756 130.969 248.528 131.93 248.517L191.697 247.87C192.659 247.86 193.431 247.072 193.42 246.11C193.41 245.148 192.622 244.377 191.66 244.387Z" fill="white"/>
<path d="M175.954 250.621L130.637 251.111C129.817 251.12 129.16 251.792 129.169 252.612C129.178 253.431 129.849 254.089 130.669 254.08L175.987 253.59C176.806 253.581 177.464 252.909 177.455 252.089C177.446 251.269 176.774 250.612 175.954 250.621Z" fill="white"/>
<path d="M146.094 258.231L129.531 258.41C128.86 258.418 128.323 258.967 128.33 259.638C128.337 260.308 128.887 260.846 129.557 260.838L146.12 260.659C146.791 260.652 147.329 260.102 147.321 259.432C147.314 258.762 146.765 258.224 146.094 258.231Z" fill="white"/>
<path d="M92.9187 259.14C92.1488 259.164 91.3915 258.94 90.7592 258.5C90.1268 258.061 89.6531 257.429 89.4084 256.698C88.9822 255.341 89.0012 253.884 89.4625 252.539C90.4297 249.569 93.1318 242.809 94.8261 238.473C95.1337 237.732 95.6542 237.099 96.3218 236.653C96.9894 236.208 97.774 235.97 98.5765 235.971L190.65 234.956C190.65 234.956 195.869 234.422 196.095 239.522C196.322 244.622 196.247 253.726 196.247 253.726C196.247 253.726 196.944 257.209 192.061 257.29C188.838 257.337 107.119 258.873 92.9187 259.14Z" fill="black"/>
<path d="M93.5038 255.413C92.6505 255.437 91.8039 255.256 91.0351 254.886C89.8751 254.304 88.6678 253.134 89.4253 250.848C90.3857 247.878 93.7743 239.086 95.4585 234.75C95.7599 234.01 96.2746 233.377 96.937 232.931C97.5995 232.485 98.3798 232.245 99.1785 232.244L190.667 231.25C190.667 231.25 195.852 230.716 196.078 235.815C196.305 240.915 196.234 250.019 196.234 250.019C196.234 250.019 196.91 253.502 192.071 253.583C188.743 253.621 102.472 255.244 93.5038 255.413Z" fill="#F5F5FC"/>
<path d="M108.332 252.449C115.237 252.374 120.791 248.327 120.738 243.41C120.684 238.493 115.044 234.567 108.139 234.641C101.235 234.716 95.6806 238.763 95.7338 243.681C95.7871 248.598 101.427 252.524 108.332 252.449Z" fill="white"/>
<path d="M187.266 234.919L127.499 235.566C126.537 235.576 125.766 236.364 125.776 237.326C125.787 238.288 126.575 239.059 127.537 239.049L187.304 238.402C188.266 238.392 189.037 237.603 189.026 236.642C189.016 235.68 188.228 234.909 187.266 234.919Z" fill="white"/>
<path d="M171.561 241.152L126.243 241.643C125.423 241.651 124.766 242.323 124.775 243.143C124.784 243.963 125.456 244.621 126.275 244.612L171.593 244.121C172.413 244.112 173.07 243.441 173.061 242.621C173.052 241.801 172.381 241.143 171.561 241.152Z" fill="white"/>
<path d="M141.697 248.763L125.134 248.942C124.463 248.949 123.926 249.499 123.933 250.169C123.94 250.84 124.49 251.377 125.16 251.37L141.723 251.191C142.394 251.184 142.931 250.634 142.924 249.964C142.917 249.293 142.367 248.755 141.697 248.763Z" fill="white"/>
<path d="M101.911 250.969C101.163 250.983 100.432 250.752 99.828 250.311C99.2241 249.87 98.781 249.244 98.5664 248.528C98.161 247.169 98.1787 245.72 98.6171 244.371C99.537 241.402 102.107 234.642 103.717 230.306C103.991 229.577 104.479 228.948 105.117 228.502C105.755 228.055 106.513 227.812 107.292 227.804L194.979 226.85C194.979 226.85 199.947 226.316 200.163 231.419C200.38 236.522 200.319 245.623 200.319 245.623C200.319 245.623 200.995 249.109 196.332 249.184C193.268 249.218 115.432 250.709 101.911 250.969Z" fill="black"/>
<path d="M102.466 247.229C101.644 247.258 100.829 247.075 100.098 246.698C98.9959 246.116 97.8596 244.95 98.563 242.664C99.4761 239.694 102.699 230.902 104.312 226.566C104.581 225.839 105.064 225.21 105.699 224.764C106.333 224.317 107.088 224.074 107.863 224.067L194.986 223.117C194.986 223.117 199.923 222.582 200.14 227.685C200.356 232.789 200.295 241.889 200.295 241.889C200.295 241.889 200.972 245.376 196.335 245.45C193.163 245.498 111.008 247.077 102.466 247.229Z" fill="#F5F5FC"/>
<path d="M116.586 244.288C123.162 244.217 128.45 240.173 128.397 235.255C128.343 230.338 122.97 226.409 116.394 226.48C109.818 226.551 104.53 230.595 104.583 235.513C104.636 240.43 110.01 244.359 116.586 244.288Z" fill="white"/>
<path d="M191.665 226.799L134.915 227.413C133.953 227.424 133.182 228.212 133.192 229.174C133.203 230.136 133.991 230.907 134.953 230.897L191.703 230.282C192.665 230.272 193.436 229.484 193.426 228.522C193.415 227.56 192.627 226.789 191.665 226.799Z" fill="white"/>
<path d="M176.516 233.363L133.499 233.793C132.679 233.801 132.021 234.473 132.03 235.293C132.038 236.112 132.709 236.771 133.529 236.762L176.546 236.332C177.366 236.324 178.024 235.653 178.016 234.833C178.008 234.013 177.336 233.355 176.516 233.363Z" fill="white"/>
<path d="M148.304 240.616L132.644 240.785C131.974 240.793 131.436 241.342 131.443 242.013C131.45 242.683 132 243.221 132.67 243.213L148.331 243.044C149.001 243.037 149.539 242.487 149.532 241.817C149.524 241.146 148.975 240.609 148.304 240.616Z" fill="white"/>
<path d="M89.9258 241.997C89.1784 242.004 88.4494 241.765 87.8503 241.318C87.2513 240.871 86.815 240.24 86.6082 239.522C86.2185 238.158 86.2516 236.707 86.7029 235.362C87.6566 232.406 90.2978 225.673 91.9583 221.358C92.2388 220.631 92.7332 220.006 93.3762 219.566C94.0193 219.126 94.7807 218.891 95.56 218.893H183.251C183.251 218.893 188.226 218.416 188.385 223.519C188.544 228.622 188.385 237.723 188.385 237.723C188.385 237.723 189.014 241.213 184.36 241.24C181.286 241.243 103.45 241.886 89.9258 241.997Z" fill="black"/>
<path d="M90.521 238.277C89.7043 238.294 88.8968 238.103 88.174 237.723C87.0749 237.128 85.9522 235.947 86.6793 233.665C87.6262 230.709 90.9471 221.95 92.5941 217.635C92.8707 216.91 93.3609 216.286 93.9998 215.846C94.6387 215.405 95.3962 215.17 96.1721 215.169H183.302C183.302 215.169 188.246 214.692 188.405 219.796C188.564 224.899 188.405 233.999 188.405 233.999C188.405 233.999 189.027 237.489 184.408 237.516C181.232 237.523 99.0635 238.206 90.521 238.277Z" fill="#F5F5FC"/>
<path d="M104.694 235.45C111.271 235.45 116.602 231.463 116.602 226.546C116.602 221.628 111.271 217.641 104.694 217.641C98.118 217.641 92.7868 221.628 92.7868 226.546C92.7868 231.463 98.118 235.45 104.694 235.45Z" fill="white"/>
<path d="M179.957 218.774H123.203C122.241 218.774 121.461 219.554 121.461 220.516C121.461 221.478 122.241 222.258 123.203 222.258H179.957C180.919 222.258 181.699 221.478 181.699 220.516C181.699 219.554 180.919 218.774 179.957 218.774Z" fill="white"/>
<path d="M164.948 224.838H121.932C121.112 224.838 120.447 225.503 120.447 226.323C120.447 227.142 121.112 227.807 121.932 227.807H164.948C165.768 227.807 166.433 227.142 166.433 226.323C166.433 225.503 165.768 224.838 164.948 224.838Z" fill="white"/>
<path d="M136.45 232.126H120.788C120.118 232.126 119.574 232.669 119.574 233.34C119.574 234.01 120.118 234.554 120.788 234.554H136.45C137.12 234.554 137.664 234.01 137.664 233.34C137.664 232.669 137.12 232.126 136.45 232.126Z" fill="white"/>
</g>
<defs>
<clipPath id="clip0">
<rect width="232.172" height="268.609" fill="white"/>
</clipPath>
</defs>
</svg>
