<svg width="1440" height="139" viewBox="0 0 1440 139" fill="none" xmlns="http://www.w3.org/2000/svg">
<path d="M0 0L34.3 13.9C68.6 27.8 137 55.6 206 50.9956C274.3 46.0437 343 9.55625 411 13.9C480 18.2437 549 65.1562 617 78.7956C685.7 92.9562 754 73.8437 823 69.5C891.4 65.1562 960 73.8437 1029 69.5C1097.1 65.1562 1166 46.0437 1234 50.9956C1302.9 55.6 1371 83.4 1406 97.3L1440 111.2V139H1405.7C1371.4 139 1303 139 1234 139C1165.7 139 1097 139 1029 139C960 139 891 139 823 139C754.3 139 686 139 617 139C548.6 139 480 139 411 139C342.9 139 274 139 206 139C137.1 139 69 139 34 139H0V0Z" fill="#FBBF3E"/>
</svg>
